<?xml version="1.0" encoding="UTF-8"?>
<svg version="1.1" xmlns="http://www.w3.org/2000/svg" width="402" height="370">
<path d="M0 0 C1.36560059 0.00303635 1.36560059 0.00303635 2.75878906 0.00613403 C3.68723633 0.00517731 4.61568359 0.00422058 5.57226562 0.00323486 C7.53938871 0.00255298 9.50651403 0.00440781 11.47363281 0.00857544 C14.49581932 0.01392358 17.51785721 0.00863071 20.54003906 0.00222778 C22.44628939 0.00288856 24.35253963 0.00416972 26.25878906 0.00613403 C27.16918945 0.0041098 28.07958984 0.00208557 29.01757812 0 C35.39383938 0.02399685 35.39383938 0.02399685 36.50878906 1.13894653 C37.18647467 4.82218693 37.59792827 8.54953647 38.07128906 12.26394653 C38.27915039 13.81468872 38.27915039 13.81468872 38.49121094 15.39675903 C39.17636978 20.68902046 39.68263064 25.8027658 39.50878906 31.13894653 C40.16878906 31.13894653 40.82878906 31.13894653 41.50878906 31.13894653 C41.50878906 31.79894653 41.50878906 32.45894653 41.50878906 33.13894653 C42.80816406 33.28332153 44.10753906 33.42769653 45.44628906 33.57644653 C49.38378906 34.01394653 49.38378906 34.01394653 50.50878906 35.13894653 C52.8369687 35.50655384 55.17062756 35.84136234 57.50878906 36.13894653 C57.50878906 36.79894653 57.50878906 37.45894653 57.50878906 38.13894653 C58.23066406 38.24207153 58.95253906 38.34519653 59.69628906 38.45144653 C62.76864354 39.20246652 64.82973035 40.49029502 67.50878906 42.13894653 C69.7000944 42.83474108 69.7000944 42.83474108 71.50878906 43.13894653 C71.50878906 43.79894653 71.50878906 44.45894653 71.50878906 45.13894653 C73.15878906 45.46894653 74.80878906 45.79894653 76.50878906 46.13894653 C76.50878906 46.79894653 76.50878906 47.45894653 76.50878906 48.13894653 C78.98378906 47.64394653 78.98378906 47.64394653 81.50878906 47.13894653 C81.50878906 46.47894653 81.50878906 45.81894653 81.50878906 45.13894653 C82.16878906 45.13894653 82.82878906 45.13894653 83.50878906 45.13894653 C83.50878906 44.47894653 83.50878906 43.81894653 83.50878906 43.13894653 C87.89340445 40.13894653 87.89340445 40.13894653 90.50878906 40.13894653 C90.50878906 39.47894653 90.50878906 38.81894653 90.50878906 38.13894653 C91.16878906 38.13894653 91.82878906 38.13894653 92.50878906 38.13894653 C92.50878906 37.47894653 92.50878906 36.81894653 92.50878906 36.13894653 C93.49878906 36.13894653 94.48878906 36.13894653 95.50878906 36.13894653 C95.50878906 35.47894653 95.50878906 34.81894653 95.50878906 34.13894653 C96.16878906 34.13894653 96.82878906 34.13894653 97.50878906 34.13894653 C97.81816406 33.49957153 98.12753906 32.86019653 98.44628906 32.20144653 C99.50878906 30.13894653 99.50878906 30.13894653 100.50878906 29.13894653 C102.5083727 29.0981387 104.5092416 29.09640297 106.50878906 29.13894653 C106.50878906 29.79894653 106.50878906 30.45894653 106.50878906 31.13894653 C107.49878906 31.46894653 108.48878906 31.79894653 109.50878906 32.13894653 C109.50878906 32.79894653 109.50878906 33.45894653 109.50878906 34.13894653 C110.16878906 34.13894653 110.82878906 34.13894653 111.50878906 34.13894653 C111.50878906 34.79894653 111.50878906 35.45894653 111.50878906 36.13894653 C112.16878906 36.13894653 112.82878906 36.13894653 113.50878906 36.13894653 C115.01660156 37.59988403 115.01660156 37.59988403 116.63378906 39.51394653 C117.17261719 40.14043091 117.71144531 40.76691528 118.26660156 41.41238403 C119.50878906 43.13894653 119.50878906 43.13894653 119.50878906 45.13894653 C120.10691406 45.40707153 120.70503906 45.67519653 121.32128906 45.95144653 C123.5072676 47.1381206 124.922115 48.23493766 126.50878906 50.13894653 C126.50878906 50.79894653 126.50878906 51.45894653 126.50878906 52.13894653 C127.82878906 52.46894653 129.14878906 52.79894653 130.50878906 53.13894653 C130.50878906 53.79894653 130.50878906 54.45894653 130.50878906 55.13894653 C131.16878906 55.13894653 131.82878906 55.13894653 132.50878906 55.13894653 C133.63378906 57.38894653 133.63378906 57.38894653 134.50878906 60.13894653 C133.63378906 62.45144653 133.63378906 62.45144653 132.50878906 64.13894653 C131.84878906 64.13894653 131.18878906 64.13894653 130.50878906 64.13894653 C130.50878906 64.79894653 130.50878906 65.45894653 130.50878906 66.13894653 C129.13378906 67.76394653 129.13378906 67.76394653 127.50878906 69.13894653 C126.84878906 69.13894653 126.18878906 69.13894653 125.50878906 69.13894653 C125.50878906 69.79894653 125.50878906 70.45894653 125.50878906 71.13894653 C124.84878906 71.13894653 124.18878906 71.13894653 123.50878906 71.13894653 C123.38503906 71.73707153 123.26128906 72.33519653 123.13378906 72.95144653 C122.50878906 75.13894653 122.50878906 75.13894653 120.50878906 78.13894653 C119.84878906 78.13894653 119.18878906 78.13894653 118.50878906 78.13894653 C118.50878906 78.79894653 118.50878906 79.45894653 118.50878906 80.13894653 C117.84878906 80.13894653 117.18878906 80.13894653 116.50878906 80.13894653 C116.50878906 81.12894653 116.50878906 82.11894653 116.50878906 83.13894653 C115.84878906 83.13894653 115.18878906 83.13894653 114.50878906 83.13894653 C114.79753906 83.76543091 115.08628906 84.39191528 115.38378906 85.03738403 C115.94066406 86.26328247 115.94066406 86.26328247 116.50878906 87.51394653 C117.06566406 88.7321106 117.06566406 88.7321106 117.63378906 89.97488403 C118.50878906 92.13894653 118.50878906 92.13894653 118.50878906 94.13894653 C119.16878906 94.13894653 119.82878906 94.13894653 120.50878906 94.13894653 C121.4685108 96.68009655 122.426604 99.2218411 123.38378906 101.76394653 C123.78791016 102.83322388 123.78791016 102.83322388 124.20019531 103.92410278 C128.50878906 115.3786569 128.50878906 115.3786569 128.50878906 120.13894653 C129.16878906 120.13894653 129.82878906 120.13894653 130.50878906 120.13894653 C130.50878906 121.45894653 130.50878906 122.77894653 130.50878906 124.13894653 C131.66894531 124.18793091 132.82910156 124.23691528 134.02441406 124.28738403 C158.80473415 125.43489162 158.80473415 125.43489162 161.50878906 128.13894653 C162.84066562 137.4456395 162.64133862 147.01032651 162.69628906 156.38894653 C162.70926025 157.60372681 162.72223145 158.81850708 162.7355957 160.07009888 C162.73740845 161.78253784 162.73740845 161.78253784 162.73925781 163.52957153 C162.7433667 164.5611438 162.74747559 165.59271606 162.75170898 166.6555481 C162.50878906 169.13894653 162.50878906 169.13894653 160.50878906 171.13894653 C157.69799166 171.61826146 154.9652716 171.98407399 152.13378906 172.26394653 C151.32828613 172.34886353 150.5227832 172.43378052 149.69287109 172.52127075 C143.28835538 173.15572248 136.94396477 173.36607038 130.50878906 173.13894653 C130.50878906 174.12894653 130.50878906 175.11894653 130.50878906 176.13894653 C129.84878906 176.13894653 129.18878906 176.13894653 128.50878906 176.13894653 C128.40566406 177.10832153 128.30253906 178.07769653 128.19628906 179.07644653 C127.09177033 186.61138254 124.14647555 193.19348196 120.59472656 199.87722778 C119.58761264 201.97477799 118.97651623 203.86787129 118.50878906 206.13894653 C117.84878906 206.13894653 117.18878906 206.13894653 116.50878906 206.13894653 C116.36441406 206.88144653 116.22003906 207.62394653 116.07128906 208.38894653 C115.60691414 210.65922393 115.09015337 212.89654133 114.50878906 215.13894653 C115.16878906 215.46894653 115.82878906 215.79894653 116.50878906 216.13894653 C116.50878906 216.79894653 116.50878906 217.45894653 116.50878906 218.13894653 C117.16878906 218.13894653 117.82878906 218.13894653 118.50878906 218.13894653 C118.96253906 219.10832153 119.41628906 220.07769653 119.88378906 221.07644653 C121.16665128 224.20974235 121.16665128 224.20974235 123.50878906 225.13894653 C123.50878906 225.79894653 123.50878906 226.45894653 123.50878906 227.13894653 C124.16878906 227.13894653 124.82878906 227.13894653 125.50878906 227.13894653 C125.50878906 228.12894653 125.50878906 229.11894653 125.50878906 230.13894653 C126.16878906 230.13894653 126.82878906 230.13894653 127.50878906 230.13894653 C127.50878906 230.79894653 127.50878906 231.45894653 127.50878906 232.13894653 C128.49878906 232.13894653 129.48878906 232.13894653 130.50878906 232.13894653 C132.7989256 235.57415133 132.6872188 237.12427753 132.50878906 241.13894653 C131.84878906 241.13894653 131.18878906 241.13894653 130.50878906 241.13894653 C130.17878906 242.12894653 129.84878906 243.11894653 129.50878906 244.13894653 C128.51878906 244.13894653 127.52878906 244.13894653 126.50878906 244.13894653 C126.17878906 245.45894653 125.84878906 246.77894653 125.50878906 248.13894653 C124.84878906 248.13894653 124.18878906 248.13894653 123.50878906 248.13894653 C123.50878906 248.79894653 123.50878906 249.45894653 123.50878906 250.13894653 C122.13378906 251.76394653 122.13378906 251.76394653 120.50878906 253.13894653 C119.84878906 253.13894653 119.18878906 253.13894653 118.50878906 253.13894653 C118.24066406 253.73707153 117.97253906 254.33519653 117.69628906 254.95144653 C116.509615 257.13742507 115.41279794 258.55227247 113.50878906 260.13894653 C112.84878906 260.13894653 112.18878906 260.13894653 111.50878906 260.13894653 C111.50878906 260.79894653 111.50878906 261.45894653 111.50878906 262.13894653 C110.84878906 262.13894653 110.18878906 262.13894653 109.50878906 262.13894653 C109.17878906 263.12894653 108.84878906 264.11894653 108.50878906 265.13894653 C107.84878906 265.13894653 107.18878906 265.13894653 106.50878906 265.13894653 C106.50878906 265.79894653 106.50878906 266.45894653 106.50878906 267.13894653 C105.84878906 267.13894653 105.18878906 267.13894653 104.50878906 267.13894653 C104.50878906 267.79894653 104.50878906 268.45894653 104.50878906 269.13894653 C102.85878906 269.13894653 101.20878906 269.13894653 99.50878906 269.13894653 C98.84878906 267.81894653 98.18878906 266.49894653 97.50878906 265.13894653 C96.84878906 265.13894653 96.18878906 265.13894653 95.50878906 265.13894653 C93.88378906 263.76394653 93.88378906 263.76394653 92.50878906 262.13894653 C92.50878906 261.47894653 92.50878906 260.81894653 92.50878906 260.13894653 C91.84878906 260.13894653 91.18878906 260.13894653 90.50878906 260.13894653 C90.50878906 259.47894653 90.50878906 258.81894653 90.50878906 258.13894653 C89.91066406 258.01519653 89.31253906 257.89144653 88.69628906 257.76394653 C86.50878906 257.13894653 86.50878906 257.13894653 83.50878906 255.13894653 C83.50878906 254.47894653 83.50878906 253.81894653 83.50878906 253.13894653 C82.84878906 253.13894653 82.18878906 253.13894653 81.50878906 253.13894653 C81.50878906 252.47894653 81.50878906 251.81894653 81.50878906 251.13894653 C80.51878906 251.13894653 79.52878906 251.13894653 78.50878906 251.13894653 C78.50878906 250.47894653 78.50878906 249.81894653 78.50878906 249.13894653 C77.69474609 249.57207153 77.69474609 249.57207153 76.86425781 250.01394653 C76.14882813 250.38519653 75.43339844 250.75644653 74.69628906 251.13894653 C73.98859375 251.51019653 73.28089844 251.88144653 72.55175781 252.26394653 C70.50878906 253.13894653 70.50878906 253.13894653 67.50878906 253.13894653 C67.50878906 253.79894653 67.50878906 254.45894653 67.50878906 255.13894653 C63.77913767 257.17330184 61.83973865 258.13894653 57.50878906 258.13894653 C57.50878906 258.79894653 57.50878906 259.45894653 57.50878906 260.13894653 C55.19878906 260.13894653 52.88878906 260.13894653 50.50878906 260.13894653 C50.50878906 260.79894653 50.50878906 261.45894653 50.50878906 262.13894653 C49.87070313 262.18793091 49.23261719 262.23691528 48.57519531 262.28738403 C47.33576172 262.39953247 47.33576172 262.39953247 46.07128906 262.51394653 C45.24757812 262.58355591 44.42386719 262.65316528 43.57519531 262.72488403 C42.89328125 262.86152466 42.21136719 262.99816528 41.50878906 263.13894653 C41.17878906 263.79894653 40.84878906 264.45894653 40.50878906 265.13894653 C39.51878906 265.13894653 38.52878906 265.13894653 37.50878906 265.13894653 C37.45343994 265.72796753 37.39809082 266.31698853 37.34106445 266.92385864 C37.08524934 269.64146168 36.82827528 272.358954 36.57128906 275.07644653 C36.48427734 276.00263794 36.39726562 276.92882935 36.30761719 277.88308716 C36.04685223 280.63560615 35.77923326 283.38736288 35.50878906 286.13894653 C35.42483887 287.01824829 35.34088867 287.89755005 35.25439453 288.80349731 C34.62467448 295.02306112 34.62467448 295.02306112 33.50878906 296.13894653 C30.40627706 296.22768788 27.32610786 296.25413108 24.22363281 296.23660278 C23.29281387 296.23518784 22.36199493 296.23377289 21.40296936 296.23231506 C18.41737715 296.22669825 15.43185877 296.21414293 12.44628906 296.20144653 C10.42740993 296.1964337 8.40852963 296.19187042 6.38964844 296.18777466 C1.42933335 296.17672336 -3.53092626 296.15944749 -8.49121094 296.13894653 C-9.79660219 291.82850229 -10.79663826 287.76403463 -11.30761719 283.27566528 C-11.43201172 282.22443481 -11.55640625 281.17320435 -11.68457031 280.09011841 C-11.80638672 279.01310669 -11.92820312 277.93609497 -12.05371094 276.82644653 C-12.3016904 274.66330263 -12.55283041 272.50051795 -12.80761719 270.33816528 C-12.91533447 269.38772339 -13.02305176 268.43728149 -13.1340332 267.45803833 C-13.37304747 265.12039762 -13.37304747 265.12039762 -14.49121094 263.13894653 C-16.44225611 262.87439804 -18.3951222 262.61757738 -20.35449219 262.42410278 C-23.20787406 262.04330411 -25.78801934 261.1043721 -28.49121094 260.13894653 C-29.15121094 260.13894653 -29.81121094 260.13894653 -30.49121094 260.13894653 C-30.49121094 259.47894653 -30.49121094 258.81894653 -30.49121094 258.13894653 C-35.44121094 256.65394653 -35.44121094 256.65394653 -40.49121094 255.13894653 C-40.49121094 254.47894653 -40.49121094 253.81894653 -40.49121094 253.13894653 C-41.81121094 253.13894653 -43.13121094 253.13894653 -44.49121094 253.13894653 C-44.49121094 252.47894653 -44.49121094 251.81894653 -44.49121094 251.13894653 C-45.23371094 250.99457153 -45.97621094 250.85019653 -46.74121094 250.70144653 C-49.49121094 250.13894653 -49.49121094 250.13894653 -51.49121094 249.26394653 C-52.15121094 249.22269653 -52.81121094 249.18144653 -53.49121094 249.13894653 C-55.20114527 250.76119193 -56.86468778 252.43308078 -58.49121094 254.13894653 C-61.30371094 255.45144653 -61.30371094 255.45144653 -63.49121094 256.13894653 C-63.49121094 256.79894653 -63.49121094 257.45894653 -63.49121094 258.13894653 C-64.15121094 258.13894653 -64.81121094 258.13894653 -65.49121094 258.13894653 C-65.49121094 258.79894653 -65.49121094 259.45894653 -65.49121094 260.13894653 C-66.48121094 260.13894653 -67.47121094 260.13894653 -68.49121094 260.13894653 C-68.49121094 260.79894653 -68.49121094 261.45894653 -68.49121094 262.13894653 C-69.15121094 262.13894653 -69.81121094 262.13894653 -70.49121094 262.13894653 C-70.80058594 262.77832153 -71.10996094 263.41769653 -71.42871094 264.07644653 C-72.49121094 266.13894653 -72.49121094 266.13894653 -73.49121094 267.13894653 C-75.49079457 267.17975436 -77.49166348 267.1814901 -79.49121094 267.13894653 C-79.49121094 266.47894653 -79.49121094 265.81894653 -79.49121094 265.13894653 C-80.48121094 264.80894653 -81.47121094 264.47894653 -82.49121094 264.13894653 C-82.49121094 263.47894653 -82.49121094 262.81894653 -82.49121094 262.13894653 C-83.15121094 262.13894653 -83.81121094 262.13894653 -84.49121094 262.13894653 C-84.49121094 261.47894653 -84.49121094 260.81894653 -84.49121094 260.13894653 C-85.15121094 260.13894653 -85.81121094 260.13894653 -86.49121094 260.13894653 C-88.11621094 258.76394653 -88.11621094 258.76394653 -89.49121094 257.13894653 C-89.49121094 256.47894653 -89.49121094 255.81894653 -89.49121094 255.13894653 C-90.15121094 255.13894653 -90.81121094 255.13894653 -91.49121094 255.13894653 C-91.49121094 254.47894653 -91.49121094 253.81894653 -91.49121094 253.13894653 C-92.15121094 253.13894653 -92.81121094 253.13894653 -93.49121094 253.13894653 C-93.49121094 252.47894653 -93.49121094 251.81894653 -93.49121094 251.13894653 C-94.48121094 250.80894653 -95.47121094 250.47894653 -96.49121094 250.13894653 C-96.49121094 249.47894653 -96.49121094 248.81894653 -96.49121094 248.13894653 C-97.15121094 248.13894653 -97.81121094 248.13894653 -98.49121094 248.13894653 C-98.49121094 247.47894653 -98.49121094 246.81894653 -98.49121094 246.13894653 C-99.15121094 246.13894653 -99.81121094 246.13894653 -100.49121094 246.13894653 C-100.49121094 245.47894653 -100.49121094 244.81894653 -100.49121094 244.13894653 C-101.48121094 243.80894653 -102.47121094 243.47894653 -103.49121094 243.13894653 C-103.49121094 242.47894653 -103.49121094 241.81894653 -103.49121094 241.13894653 C-104.15121094 241.13894653 -104.81121094 241.13894653 -105.49121094 241.13894653 C-105.49121094 240.47894653 -105.49121094 239.81894653 -105.49121094 239.13894653 C-106.15121094 239.13894653 -106.81121094 239.13894653 -107.49121094 239.13894653 C-106.61621094 234.38894653 -106.61621094 234.38894653 -105.49121094 232.13894653 C-104.83121094 232.13894653 -104.17121094 232.13894653 -103.49121094 232.13894653 C-103.49121094 231.47894653 -103.49121094 230.81894653 -103.49121094 230.13894653 C-102.11621094 228.51394653 -102.11621094 228.51394653 -100.49121094 227.13894653 C-99.83121094 227.13894653 -99.17121094 227.13894653 -98.49121094 227.13894653 C-98.18183594 226.35519653 -97.87246094 225.57144653 -97.55371094 224.76394653 C-96.49121094 222.13894653 -96.49121094 222.13894653 -95.49121094 220.13894653 C-94.83121094 220.13894653 -94.17121094 220.13894653 -93.49121094 220.13894653 C-93.49121094 219.47894653 -93.49121094 218.81894653 -93.49121094 218.13894653 C-92.83121094 218.13894653 -92.17121094 218.13894653 -91.49121094 218.13894653 C-91.49121094 217.47894653 -91.49121094 216.81894653 -91.49121094 216.13894653 C-90.83121094 216.13894653 -90.17121094 216.13894653 -89.49121094 216.13894653 C-89.49121094 215.14894653 -89.49121094 214.15894653 -89.49121094 213.13894653 C-88.83121094 213.13894653 -88.17121094 213.13894653 -87.49121094 213.13894653 C-87.49121094 212.47894653 -87.49121094 211.81894653 -87.49121094 211.13894653 C-88.15121094 211.13894653 -88.81121094 211.13894653 -89.49121094 211.13894653 C-89.49121094 209.48894653 -89.49121094 207.83894653 -89.49121094 206.13894653 C-90.15121094 206.13894653 -90.81121094 206.13894653 -91.49121094 206.13894653 C-91.49121094 204.81894653 -91.49121094 203.49894653 -91.49121094 202.13894653 C-92.15121094 202.13894653 -92.81121094 202.13894653 -93.49121094 202.13894653 C-95.52556624 198.40929514 -96.49121094 196.46989612 -96.49121094 192.13894653 C-97.15121094 192.13894653 -97.81121094 192.13894653 -98.49121094 192.13894653 C-100.01491206 187.36468302 -100.80827206 182.96229503 -101.14746094 177.95925903 C-101.26089844 177.35855591 -101.37433594 176.75785278 -101.49121094 176.13894653 C-102.15121094 175.80894653 -102.81121094 175.47894653 -103.49121094 175.13894653 C-103.49121094 174.14894653 -103.49121094 173.15894653 -103.49121094 172.13894653 C-104.65136719 172.08996216 -105.81152344 172.04097778 -107.00683594 171.99050903 C-127.49071185 171.04624803 -127.49071185 171.04624803 -133.49121094 169.13894653 C-136.05933867 165.28675494 -135.77925579 162.10417771 -135.75683594 157.63894653 C-135.75874939 156.80685669 -135.76066284 155.97476685 -135.76263428 155.11746216 C-135.76399468 153.35899554 -135.76030832 151.60051883 -135.75195312 149.84207153 C-135.74125142 147.14913391 -135.75185315 144.45686339 -135.76464844 141.76394653 C-135.76332682 140.05561173 -135.76076437 138.34727733 -135.75683594 136.63894653 C-135.7608844 135.83263794 -135.76493286 135.02632935 -135.769104 134.19558716 C-135.73660013 130.32419961 -135.68810143 128.43428227 -133.49121094 125.13894653 C-130.61791992 124.55471802 -130.61791992 124.55471802 -126.98730469 124.26004028 C-125.68986328 124.14338013 -124.39242187 124.02671997 -123.05566406 123.90652466 C-121.68010775 123.79532062 -120.30445455 123.68530902 -118.92871094 123.57644653 C-116.23865364 123.35719125 -113.55075621 123.12434054 -110.86230469 122.88504028 C-109.66532959 122.78892456 -108.46835449 122.69280884 -107.23510742 122.59378052 C-106.32962158 122.4436853 -105.42413574 122.29359009 -104.49121094 122.13894653 C-104.16121094 121.47894653 -103.83121094 120.81894653 -103.49121094 120.13894653 C-102.83121094 120.13894653 -102.17121094 120.13894653 -101.49121094 120.13894653 C-101.43513672 119.28623169 -101.43513672 119.28623169 -101.37792969 118.41629028 C-100.92475995 113.09376732 -99.83394772 109.00463061 -97.49121094 104.13894653 C-96.99621094 102.98394653 -96.50121094 101.82894653 -95.99121094 100.63894653 C-93.74121094 95.38894653 -93.74121094 95.38894653 -91.49121094 90.13894653 C-90.83121094 90.13894653 -90.17121094 90.13894653 -89.49121094 90.13894653 C-89.34683594 89.39644653 -89.20246094 88.65394653 -89.05371094 87.88894653 C-88.58933602 85.61866914 -88.07257525 83.38135174 -87.49121094 81.13894653 C-88.48121094 80.64394653 -88.48121094 80.64394653 -89.49121094 80.13894653 C-89.49121094 79.47894653 -89.49121094 78.81894653 -89.49121094 78.13894653 C-90.48121094 77.64394653 -90.48121094 77.64394653 -91.49121094 77.13894653 C-94.49121094 73.56202346 -94.49121094 73.56202346 -94.49121094 71.13894653 C-95.15121094 71.13894653 -95.81121094 71.13894653 -96.49121094 71.13894653 C-96.49121094 70.47894653 -96.49121094 69.81894653 -96.49121094 69.13894653 C-97.15121094 69.13894653 -97.81121094 69.13894653 -98.49121094 69.13894653 C-99.48121094 68.14894653 -99.48121094 68.14894653 -100.49121094 67.13894653 C-100.49121094 66.14894653 -100.49121094 65.15894653 -100.49121094 64.13894653 C-101.48121094 64.13894653 -102.47121094 64.13894653 -103.49121094 64.13894653 C-103.49121094 63.47894653 -103.49121094 62.81894653 -103.49121094 62.13894653 C-104.15121094 62.13894653 -104.81121094 62.13894653 -105.49121094 62.13894653 C-105.74121094 58.82644653 -105.74121094 58.82644653 -105.49121094 55.13894653 C-103.61621094 53.20144653 -103.61621094 53.20144653 -101.49121094 52.13894653 C-100.83121094 52.13894653 -100.17121094 52.13894653 -99.49121094 52.13894653 C-99.28496094 51.60269653 -99.07871094 51.06644653 -98.86621094 50.51394653 C-96.95870668 47.21916645 -94.4430171 44.54531025 -91.49121094 42.13894653 C-90.83121094 42.13894653 -90.17121094 42.13894653 -89.49121094 42.13894653 C-89.10642578 41.26109497 -89.10642578 41.26109497 -88.71386719 40.36550903 C-87.38558932 37.94660045 -85.92596292 36.40695781 -83.92871094 34.51394653 C-81.35105705 32.09372695 -81.35105705 32.09372695 -79.49121094 29.13894653 C-78.83121094 29.13894653 -78.17121094 29.13894653 -77.49121094 29.13894653 C-77.49121094 28.47894653 -77.49121094 27.81894653 -77.49121094 27.13894653 C-72.74121094 28.01394653 -72.74121094 28.01394653 -70.49121094 29.13894653 C-70.49121094 29.79894653 -70.49121094 30.45894653 -70.49121094 31.13894653 C-69.83121094 31.13894653 -69.17121094 31.13894653 -68.49121094 31.13894653 C-66.86621094 32.51394653 -66.86621094 32.51394653 -65.49121094 34.13894653 C-65.49121094 34.79894653 -65.49121094 35.45894653 -65.49121094 36.13894653 C-64.78996094 36.34519653 -64.08871094 36.55144653 -63.36621094 36.76394653 C-60.11605363 38.31836959 -58.30934915 40.15889645 -55.92089844 42.79910278 C-54.41645143 44.39607662 -54.41645143 44.39607662 -51.49121094 45.13894653 C-51.49121094 45.79894653 -51.49121094 46.45894653 -51.49121094 47.13894653 C-50.67716797 46.70582153 -50.67716797 46.70582153 -49.84667969 46.26394653 C-49.13125 45.89269653 -48.41582031 45.52144653 -47.67871094 45.13894653 C-46.97101563 44.76769653 -46.26332031 44.39644653 -45.53417969 44.01394653 C-43.49121094 43.13894653 -43.49121094 43.13894653 -40.49121094 43.13894653 C-40.49121094 42.47894653 -40.49121094 41.81894653 -40.49121094 41.13894653 C-33.86621094 38.13894653 -33.86621094 38.13894653 -30.49121094 38.13894653 C-29.99621094 37.14894653 -29.99621094 37.14894653 -29.49121094 36.13894653 C-27.51121094 36.13894653 -25.53121094 36.13894653 -23.49121094 36.13894653 C-23.49121094 35.47894653 -23.49121094 34.81894653 -23.49121094 34.13894653 C-22.853125 34.08996216 -22.21503906 34.04097778 -21.55761719 33.99050903 C-20.73132813 33.91574341 -19.90503906 33.84097778 -19.05371094 33.76394653 C-18.23 33.69433716 -17.40628906 33.62472778 -16.55761719 33.55300903 C-15.53474609 33.3480481 -15.53474609 33.3480481 -14.49121094 33.13894653 C-13.99621094 32.14894653 -13.99621094 32.14894653 -13.49121094 31.13894653 C-12.50121094 31.13894653 -11.51121094 31.13894653 -10.49121094 31.13894653 C-10.41773438 29.39871216 -10.41773438 29.39871216 -10.34277344 27.62332153 C-9.06519422 0.03411656 -9.06519422 0.03411656 0 0 Z M-14.27246094 67.23660278 C-16.66141632 68.20816738 -18.95406319 68.70566602 -21.49121094 69.13894653 C-21.49121094 69.79894653 -21.49121094 70.45894653 -21.49121094 71.13894653 C-22.5546875 71.28009888 -22.5546875 71.28009888 -23.63964844 71.42410278 C-26.99162003 72.26439155 -29.24063407 73.67127784 -32.11621094 75.57644653 C-33.05722656 76.19390747 -33.99824219 76.81136841 -34.96777344 77.44754028 C-36.216875 78.28478638 -36.216875 78.28478638 -37.49121094 79.13894653 C-38.48121094 79.79894653 -39.47121094 80.45894653 -40.49121094 81.13894653 C-40.49121094 81.79894653 -40.49121094 82.45894653 -40.49121094 83.13894653 C-41.15121094 83.13894653 -41.81121094 83.13894653 -42.49121094 83.13894653 C-42.49121094 83.79894653 -42.49121094 84.45894653 -42.49121094 85.13894653 C-43.08933594 85.40707153 -43.68746094 85.67519653 -44.30371094 85.95144653 C-46.48968947 87.1381206 -47.90453688 88.23493766 -49.49121094 90.13894653 C-49.49121094 90.79894653 -49.49121094 91.45894653 -49.49121094 92.13894653 C-50.15121094 92.13894653 -50.81121094 92.13894653 -51.49121094 92.13894653 C-51.49121094 92.79894653 -51.49121094 93.45894653 -51.49121094 94.13894653 C-52.97621094 94.63394653 -52.97621094 94.63394653 -54.49121094 95.13894653 C-55.2244489 97.15403012 -55.2244489 97.15403012 -55.49121094 99.13894653 C-56.15121094 99.13894653 -56.81121094 99.13894653 -57.49121094 99.13894653 C-59.09285784 101.24490028 -59.09285784 101.24490028 -60.61621094 103.88894653 C-61.15503906 104.77066528 -61.69386719 105.65238403 -62.24902344 106.56082153 C-63.7805855 109.26257269 -63.7805855 109.26257269 -63.49121094 113.13894653 C-64.15121094 113.13894653 -64.81121094 113.13894653 -65.49121094 113.13894653 C-73.54064344 138.77209081 -75.33876081 161.23370613 -63.67871094 186.26394653 C-60.74611273 191.7912304 -57.30617029 197.18445387 -53.49121094 202.13894653 C-52.83121094 202.13894653 -52.17121094 202.13894653 -51.49121094 202.13894653 C-51.49121094 202.79894653 -51.49121094 203.45894653 -51.49121094 204.13894653 C-50.83121094 204.13894653 -50.17121094 204.13894653 -49.49121094 204.13894653 C-49.49121094 204.79894653 -49.49121094 205.45894653 -49.49121094 206.13894653 C-48.83121094 206.13894653 -48.17121094 206.13894653 -47.49121094 206.13894653 C-47.16121094 207.12894653 -46.83121094 208.11894653 -46.49121094 209.13894653 C-45.83121094 209.13894653 -45.17121094 209.13894653 -44.49121094 209.13894653 C-44.49121094 209.79894653 -44.49121094 210.45894653 -44.49121094 211.13894653 C-43.83121094 211.13894653 -43.17121094 211.13894653 -42.49121094 211.13894653 C-42.49121094 211.79894653 -42.49121094 212.45894653 -42.49121094 213.13894653 C-41.83121094 213.13894653 -41.17121094 213.13894653 -40.49121094 213.13894653 C-40.16121094 214.12894653 -39.83121094 215.11894653 -39.49121094 216.13894653 C-36.48273675 217.36414917 -36.48273675 217.36414917 -33.49121094 218.13894653 C-33.49121094 218.79894653 -33.49121094 219.45894653 -33.49121094 220.13894653 C-31.84121094 220.46894653 -30.19121094 220.79894653 -28.49121094 221.13894653 C-28.49121094 221.79894653 -28.49121094 222.45894653 -28.49121094 223.13894653 C-25.53743595 225.50874666 -25.53743595 225.50874666 -21.49121094 225.13894653 C-21.49121094 225.79894653 -21.49121094 226.45894653 -21.49121094 227.13894653 C-13.87633924 229.59766686 -6.370086 231.73794938 1.50878906 233.13894653 C2.27835937 233.31812622 3.04792969 233.49730591 3.84082031 233.68191528 C7.15672183 234.24993941 10.33331827 234.27103393 13.69628906 234.26394653 C14.92734375 234.26652466 16.15839844 234.26910278 17.42675781 234.27175903 C20.42125304 234.35283603 20.42125304 234.35283603 22.50878906 233.13894653 C24.17363479 233.00888046 25.84093029 232.90936565 27.50878906 232.82644653 C32.57996965 232.42048588 36.60731381 231.17440016 41.21972656 229.07644653 C43.63680673 228.08651609 45.93893372 227.57482306 48.50878906 227.13894653 C48.50878906 226.47894653 48.50878906 225.81894653 48.50878906 225.13894653 C49.68441406 224.92238403 49.68441406 224.92238403 50.88378906 224.70144653 C53.47299924 224.26095728 53.47299924 224.26095728 55.50878906 223.13894653 C55.50878906 222.47894653 55.50878906 221.81894653 55.50878906 221.13894653 C58.97378906 220.14894653 58.97378906 220.14894653 62.50878906 219.13894653 C62.50878906 218.47894653 62.50878906 217.81894653 62.50878906 217.13894653 C64.98378906 216.14894653 64.98378906 216.14894653 67.50878906 215.13894653 C67.50878906 214.47894653 67.50878906 213.81894653 67.50878906 213.13894653 C68.16878906 213.13894653 68.82878906 213.13894653 69.50878906 213.13894653 C69.50878906 212.47894653 69.50878906 211.81894653 69.50878906 211.13894653 C70.16878906 211.13894653 70.82878906 211.13894653 71.50878906 211.13894653 C71.50878906 210.47894653 71.50878906 209.81894653 71.50878906 209.13894653 C72.49878906 208.80894653 73.48878906 208.47894653 74.50878906 208.13894653 C74.50878906 207.47894653 74.50878906 206.81894653 74.50878906 206.13894653 C75.16878906 206.13894653 75.82878906 206.13894653 76.50878906 206.13894653 C76.50878906 205.47894653 76.50878906 204.81894653 76.50878906 204.13894653 C77.16878906 204.13894653 77.82878906 204.13894653 78.50878906 204.13894653 C78.50878906 203.47894653 78.50878906 202.81894653 78.50878906 202.13894653 C79.16878906 202.13894653 79.82878906 202.13894653 80.50878906 202.13894653 C82.82470929 198.91780496 82.82470929 198.91780496 83.50878906 195.13894653 C84.16878906 195.13894653 84.82878906 195.13894653 85.50878906 195.13894653 C85.83878906 193.48894653 86.16878906 191.83894653 86.50878906 190.13894653 C87.16878906 190.13894653 87.82878906 190.13894653 88.50878906 190.13894653 C90.87858919 187.18517155 90.87858919 187.18517155 90.50878906 183.13894653 C91.16878906 183.13894653 91.82878906 183.13894653 92.50878906 183.13894653 C92.7859375 182.15152466 93.06308594 181.16410278 93.34863281 180.14675903 C93.71441338 178.85245856 94.08030455 177.55818935 94.44628906 176.26394653 C94.62869141 175.61296997 94.81109375 174.96199341 94.99902344 174.29129028 C96.39550781 169.36550903 96.39550781 169.36550903 97.50878906 167.13894653 C97.82134553 164.28686875 98.01916388 161.433978 98.22753906 158.57254028 C98.50878906 156.13894653 98.50878906 156.13894653 99.50878906 155.13894653 C99.6088381 152.89078588 99.6384579 150.63932746 99.63378906 148.38894653 C99.63636719 147.15660278 99.63894531 145.92425903 99.64160156 144.65457153 C99.52826896 141.65459083 99.16347904 139.05256681 98.50878906 136.13894653 C98.40566406 134.92207153 98.30253906 133.70519653 98.19628906 132.45144653 C97.69864264 128.14394964 96.1819628 124.48341177 94.44628906 120.53347778 C93.48484428 118.07778758 92.95127107 115.73391913 92.50878906 113.13894653 C91.84878906 113.13894653 91.18878906 113.13894653 90.50878906 113.13894653 C90.29222656 111.96332153 90.29222656 111.96332153 90.07128906 110.76394653 C89.63079981 108.17473635 89.63079981 108.17473635 88.50878906 106.13894653 C87.84878906 106.13894653 87.18878906 106.13894653 86.50878906 106.13894653 C86.44691406 105.45832153 86.38503906 104.77769653 86.32128906 104.07644653 C85.24477521 100.18443491 83.25213874 97.10449899 80.50878906 94.13894653 C79.84878906 94.13894653 79.18878906 94.13894653 78.50878906 94.13894653 C78.50878906 93.47894653 78.50878906 92.81894653 78.50878906 92.13894653 C77.84878906 92.13894653 77.18878906 92.13894653 76.50878906 92.13894653 C76.50878906 91.47894653 76.50878906 90.81894653 76.50878906 90.13894653 C75.84878906 90.13894653 75.18878906 90.13894653 74.50878906 90.13894653 C74.10660156 89.24175903 74.10660156 89.24175903 73.69628906 88.32644653 C72.509615 86.140468 71.41279794 84.72562059 69.50878906 83.13894653 C68.84878906 83.13894653 68.18878906 83.13894653 67.50878906 83.13894653 C67.17878906 82.14894653 66.84878906 81.15894653 66.50878906 80.13894653 C65.18575189 79.76684233 63.85140971 79.4326448 62.50878906 79.13894653 C62.17878906 78.47894653 61.84878906 77.81894653 61.50878906 77.13894653 C41.3662034 61.61155526 9.07623076 56.64173412 -14.27246094 67.23660278 Z " fill="#020202" transform="translate(192.4912109375,38.861053466796875)"/>
<path d="M0 0 C8.58 0 17.16 0 26 0 C26 0.66 26 1.32 26 2 C26.66 2 27.32 2 28 2 C28.05783842 6.29161047 28.0935412 10.58312145 28.125 14.875 C28.14175781 16.09832031 28.15851563 17.32164062 28.17578125 18.58203125 C28.18222656 19.74863281 28.18867188 20.91523438 28.1953125 22.1171875 C28.20578613 23.19597168 28.21625977 24.27475586 28.22705078 25.38623047 C28 28 28 28 26 30 C22.375 30.125 22.375 30.125 19 30 C19 29.34 19 28.68 19 28 C18.34 28 17.68 28 17 28 C17 25.69 17 23.38 17 21 C16.21625 21.825 15.4325 22.65 14.625 23.5 C12 26 12 26 10 26 C10 26.66 10 27.32 10 28 C8.58676881 29.17769266 7.16904337 30.35050833 5.7265625 31.4921875 C3.27522932 33.63294453 1.31497697 36.10020377 -0.703125 38.64453125 C-1.13109375 39.09183594 -1.5590625 39.53914063 -2 40 C-2.66 40 -3.32 40 -4 40 C-4 40.66 -4 41.32 -4 42 C-6.375 44.625 -6.375 44.625 -9 47 C-9.66 47 -10.32 47 -11 47 C-11 47.66 -11 48.32 -11 49 C-12.64453125 50.62109375 -12.64453125 50.62109375 -14.8125 52.4375 C-17.80562921 54.95198019 -17.80562921 54.95198019 -20.578125 57.69921875 C-22 59 -22 59 -24.9375 59.375 C-28.2667995 58.96733067 -29.64907466 58.35092534 -32 56 C-32 55.34 -32 54.68 -32 54 C-32.99 53.67 -33.98 53.34 -35 53 C-35 52.34 -35 51.68 -35 51 C-35.66 51 -36.32 51 -37 51 C-37 50.34 -37 49.68 -37 49 C-37.66 49 -38.32 49 -39 49 C-39 48.34 -39 47.68 -39 47 C-39.99 47 -40.98 47 -42 47 C-42 46.01 -42 45.02 -42 44 C-43.32 44 -44.64 44 -46 44 C-46.33 44.99 -46.66 45.98 -47 47 C-47.66 47 -48.32 47 -49 47 C-49 47.66 -49 48.32 -49 49 C-49.66 49 -50.32 49 -51 49 C-51 49.66 -51 50.32 -51 51 C-53.375 53.625 -53.375 53.625 -56 56 C-56.66 56 -57.32 56 -58 56 C-58 56.66 -58 57.32 -58 58 C-58.66 58 -59.32 58 -60 58 C-60 58.66 -60 59.32 -60 60 C-61.375 61.625 -61.375 61.625 -63 63 C-63.66 63 -64.32 63 -65 63 C-65 63.66 -65 64.32 -65 65 C-65.66 65 -66.32 65 -67 65 C-67.33 65.99 -67.66 66.98 -68 68 C-68.9590625 68.4640625 -68.9590625 68.4640625 -69.9375 68.9375 C-72.50927065 70.26235155 -72.76349039 71.44969893 -74 74 C-75.91320122 76.06037055 -77.21826243 76.92961367 -80.0390625 77.18359375 C-82.02698077 77.18710597 -84.01455888 77.09927206 -86 77 C-86 73.7 -86 70.4 -86 67 C-85.34 67 -84.68 67 -84 67 C-84 66.34 -84 65.68 -84 65 C-82.56580496 63.7659252 -81.12554257 62.53784628 -79.6484375 61.35546875 C-77.26598366 59.3964368 -75.15185707 57.20703289 -73 55 C-72.175 54.195625 -71.35 53.39125 -70.5 52.5625 C-67.92636885 50.0019495 -67.92636885 50.0019495 -65.5625 47 C-62.93248768 43.92096119 -60.1374966 41.54921599 -57 39 C-54.57868331 36.63633371 -52.27514725 34.35104995 -50.1875 31.6875 C-46.84208538 29.10675158 -44.14758002 29.72349467 -40 30 C-39.505 31.485 -39.505 31.485 -39 33 C-38.34 33 -37.68 33 -37 33 C-37 33.66 -37 34.32 -37 35 C-36.34 35 -35.68 35 -35 35 C-35 35.66 -35 36.32 -35 37 C-34.01 37.33 -33.02 37.66 -32 38 C-32 38.66 -32 39.32 -32 40 C-31.34 40 -30.68 40 -30 40 C-30 40.66 -30 41.32 -30 42 C-29.34 42 -28.68 42 -28 42 C-28 42.66 -28 43.32 -28 44 C-26.35 44 -24.7 44 -23 44 C-23 43.34 -23 42.68 -23 42 C-22.34 42 -21.68 42 -21 42 C-21 41.34 -21 40.68 -21 40 C-20.01 40 -19.02 40 -18 40 C-18 39.01 -18 38.02 -18 37 C-17.34 37 -16.68 37 -16 37 C-16 36.34 -16 35.68 -16 35 C-15.34 35 -14.68 35 -14 35 C-14 34.34 -14 33.68 -14 33 C-12.625 31.375 -12.625 31.375 -11 30 C-10.34 30 -9.68 30 -9 30 C-9 29.34 -9 28.68 -9 28 C-8.34 28 -7.68 28 -7 28 C-7 27.34 -7 26.68 -7 26 C-5.625 24.375 -5.625 24.375 -4 23 C-3.34 23 -2.68 23 -2 23 C-2 22.34 -2 21.68 -2 21 C-1.34 21 -0.68 21 0 21 C0 20.34 0 19.68 0 19 C0.99 19 1.98 19 3 19 C3 18.01 3 17.02 3 16 C3.66 16 4.32 16 5 16 C5 15.34 5 14.68 5 14 C5.66 14 6.32 14 7 14 C7 13.01 7 12.02 7 11 C6.21625 11.185625 5.4325 11.37125 4.625 11.5625 C2 12 2 12 0 11 C0 10.34 0 9.68 0 9 C-0.66 9 -1.32 9 -2 9 C-2 7.02 -2 5.04 -2 3 C-1.34 3 -0.68 3 0 3 C0 2.01 0 1.02 0 0 Z " fill="#020202" transform="translate(222,131)"/>
<path d="M0 0 C3.625 -0.1875 3.625 -0.1875 7 0 C7 0.66 7 1.32 7 2 C7.66 2 8.32 2 9 2 C9 5.3 9 8.6 9 12 C12.0810064 9.54919945 14.67810026 7.4071085 17.125 4.3125 C19.06305001 1.92223832 20.10098106 0.93791789 23 0 C26.1875 -0.1875 26.1875 -0.1875 29 0 C30 1 30 1 30.09765625 2.84765625 C30.06510417 4.8984375 30.03255208 6.94921875 30 9 C29.01 9.33 28.02 9.66 27 10 C22.67971451 13.74276382 22.67971451 13.74276382 21 19 C21.66 19 22.32 19 23 19 C26 23.38461538 26 23.38461538 26 26 C26.66 26 27.32 26 28 26 C28 26.66 28 27.32 28 28 C28.66 28 29.32 28 30 28 C30.9765625 34.0546875 30.9765625 34.0546875 31 36 C29 38 29 38 26 38.1875 C23 38 23 38 21 37 C21 36.34 21 35.68 21 35 C20.34 35 19.68 35 19 35 C16 30.61538462 16 30.61538462 16 28 C15.34 27.67 14.68 27.34 14 27 C13.67 26.67 13.34 26.34 13 26 C11.68 26 10.36 26 9 26 C9 29.63 9 33.26 9 37 C6.29120665 38.35439668 3.99066732 38.06501451 1 38 C0.505 36.515 0.505 36.515 0 35 C-0.66 35 -1.32 35 -2 35 C-2.04944705 30.49765627 -2.08574161 25.9954707 -2.10986328 21.49291992 C-2.11991935 19.96131639 -2.133566 18.42973205 -2.15087891 16.89819336 C-2.17514498 14.69640364 -2.18648688 12.49486781 -2.1953125 10.29296875 C-2.20563507 9.60849167 -2.21595764 8.92401459 -2.22659302 8.21879578 C-2.22745382 4.56938339 -2.08567666 3.12851498 0 0 Z " fill="#020202" transform="translate(171,201)"/>
<path d="M0 0 C2.83392926 -0.08174796 5.66544819 -0.14084985 8.5 -0.1875 C9.29148438 -0.21263672 10.08296875 -0.23777344 10.8984375 -0.26367188 C16.62130318 -0.33403498 20.75203857 0.70702602 26 3 C26 3.66 26 4.32 26 5 C26.66 5 27.32 5 28 5 C29.32791716 10.31166864 29.74706142 15.75881575 28 21 C27.34 21 26.68 21 26 21 C25.01 23.475 25.01 23.475 24 26 C22.35 26 20.7 26 19 26 C18.67 26.66 18.34 27.32 18 28 C15.03 28 12.06 28 9 28 C8.87625 29.27875 8.7525 30.5575 8.625 31.875 C8.25 35.75 8.25 35.75 6 38 C2.04 37.505 2.04 37.505 -2 37 C-2 25.45 -2 13.9 -2 2 C-1.34 2 -0.68 2 0 2 C0 1.34 0 0.68 0 0 Z M8 9 C8 11.97 8 14.94 8 18 C9.8871875 18.061875 9.8871875 18.061875 11.8125 18.125 C12.52019531 18.14820313 13.22789062 18.17140625 13.95703125 18.1953125 C16.31359719 18.13254462 16.31359719 18.13254462 19 16 C19 14.68 19 13.36 19 12 C18.34 12 17.68 12 17 12 C17 11.34 17 10.68 17 10 C14.04335481 8.5216774 11.25770263 8.93967217 8 9 Z " fill="#020202" transform="translate(208,201)"/>
<path d="M0 0 C2.05078125 0.03255208 4.1015625 0.06510417 6.15234375 0.09765625 C7.67498484 3.14293844 7.31519912 6.31910871 7.3203125 9.66015625 C7.3236409 10.40724854 7.3269693 11.15434082 7.33039856 11.92407227 C7.33546341 13.50438826 7.33780702 15.08471496 7.33764648 16.66503906 C7.33983509 19.08806868 7.35800076 21.51064461 7.37695312 23.93359375 C7.37988667 25.46744635 7.38187173 27.00130113 7.3828125 28.53515625 C7.38999802 29.26226807 7.39718353 29.98937988 7.40458679 30.73852539 C7.38117178 35.86882822 7.38117178 35.86882822 5.15234375 38.09765625 C-0.18098958 38.43098958 -0.18098958 38.43098958 -2.84765625 37.09765625 C-2.87230635 31.98901729 -2.89049232 26.88041266 -2.90258789 21.77172852 C-2.90762829 20.03246457 -2.91446055 18.29320489 -2.9230957 16.55395508 C-2.93517417 14.05939688 -2.94088733 11.56489452 -2.9453125 9.0703125 C-2.95047379 8.28801773 -2.95563507 7.50572296 -2.96095276 6.69972229 C-2.96114851 4.83198511 -2.90965319 2.96436421 -2.84765625 1.09765625 C-1.84765625 0.09765625 -1.84765625 0.09765625 0 0 Z " fill="#010101" transform="translate(243.84765625,200.90234375)"/>
</svg>
